<svg xmlns="http://www.w3.org/2000/svg" xmlns:xlink="http://www.w3.org/1999/xlink" width="561" height="439" viewBox="0 0 561 439">
  <defs>
    <clipPath id="clip-path">
      <rect id="Rectangle_236" data-name="Rectangle 236" width="561" height="439" transform="translate(185 3136)" fill="#fff" stroke="#707070" stroke-width="1"/>
    </clipPath>
  </defs>
  <g id="Mask_Group_8" data-name="Mask Group 8" transform="translate(-185 -3136)" clip-path="url(#clip-path)">
    <g id="Group_310" data-name="Group 310" transform="translate(800.759 3242.763) rotate(112)" opacity="0.59">
      <g id="Group_18" data-name="Group 18" transform="translate(569.471 52.55)">
        <path id="Path_75" data-name="Path 75" d="M0,0,2.549.188,8.033,73.279l-2.549-.188Z" transform="matrix(0.751, -0.66, 0.66, 0.751, 0, 5.302)" fill="#e29f0e"/>
      </g>
      <g id="Group_19" data-name="Group 19" transform="translate(552.286 44.825)">
        <path id="Path_76" data-name="Path 76" d="M0,0,2.549.188l7.87,104.874-2.549-.188Z" transform="matrix(0.751, -0.66, 0.66, 0.751, 0, 6.876)" fill="#e29f0e"/>
      </g>
      <g id="Group_20" data-name="Group 20" transform="translate(537.686 39.988)">
        <path id="Path_77" data-name="Path 77" d="M0,0,2.548.188,12.259,129.6l-2.548-.188Z" transform="translate(0 8.091) rotate(-41.3)" fill="#e29f0e"/>
      </g>
      <g id="Group_21" data-name="Group 21" transform="translate(511.864 34.102)">
        <path id="Path_78" data-name="Path 78" d="M0,0,2.548.188,15.223,169.1l-2.548-.188Z" transform="translate(0 10.047) rotate(-41.301)" fill="#e29f0e"/>
      </g>
      <g id="Group_22" data-name="Group 22" transform="translate(524.38 36.604)">
        <path id="Path_79" data-name="Path 79" d="M0,0,2.549.188l11.277,150.28-2.549-.188Z" transform="matrix(0.751, -0.66, 0.66, 0.751, 0, 9.125)" fill="#e29f0e"/>
      </g>
      <g id="Group_23" data-name="Group 23" transform="translate(499.891 32.212)">
        <path id="Path_80" data-name="Path 80" d="M0,0,2.548.188,16.5,186.13l-2.548-.188Z" transform="matrix(0.751, -0.66, 0.66, 0.751, 0, 10.891)" fill="#e29f0e"/>
      </g>
      <g id="Group_24" data-name="Group 24" transform="translate(488.343 30.796)">
        <path id="Path_81" data-name="Path 81" d="M0,0,2.549.188l15.143,201.8-2.549-.188Z" transform="matrix(0.751, -0.66, 0.66, 0.751, 0, 11.677)" fill="#e29f0e"/>
      </g>
      <g id="Group_25" data-name="Group 25" transform="translate(477.091 29.714)">
        <path id="Path_82" data-name="Path 82" d="M0,0,2.55.188,18.813,216.922l-2.55-.188Z" transform="matrix(0.751, -0.66, 0.66, 0.751, 0, 12.417)" fill="#e29f0e"/>
      </g>
      <g id="Group_26" data-name="Group 26" transform="translate(466.099 28.925)">
        <path id="Path_83" data-name="Path 83" d="M0,0,2.548.188l17.33,230.951-2.548-.188Z" transform="matrix(0.751, -0.66, 0.66, 0.751, 0, 13.12)" fill="#e29f0e"/>
      </g>
      <g id="Group_27" data-name="Group 27" transform="translate(455.303 28.361)">
        <path id="Path_84" data-name="Path 84" d="M0,0,2.55.188,20.9,244.671l-2.55-.188Z" transform="matrix(0.751, -0.66, 0.66, 0.751, 0, 13.791)" fill="#e29f0e"/>
      </g>
      <g id="Group_28" data-name="Group 28" transform="translate(444.65 27.969)">
        <path id="Path_85" data-name="Path 85" d="M0,0,2.549.188,21.859,257.533l-2.549-.188Z" transform="translate(0 14.427) rotate(-41.301)" fill="#e29f0e"/>
      </g>
      <g id="Group_29" data-name="Group 29" transform="translate(434.151 27.761)">
        <path id="Path_86" data-name="Path 86" d="M0,0,2.548.188,22.774,269.723l-2.548-.188Z" transform="matrix(0.751, -0.66, 0.66, 0.751, 0, 15.031)" fill="#e29f0e"/>
      </g>
      <g id="Group_30" data-name="Group 30" transform="translate(423.759 27.686)">
        <path id="Path_87" data-name="Path 87" d="M0,0,2.549.188l21.1,281.179L21.1,281.18Z" transform="matrix(0.751, -0.66, 0.66, 0.751, 0, 15.608)" fill="#e29f0e"/>
      </g>
      <g id="Group_31" data-name="Group 31" transform="translate(413.455 27.722)">
        <path id="Path_88" data-name="Path 88" d="M0,0,2.548.188,24.485,292.525l-2.548-.188Z" transform="matrix(0.751, -0.66, 0.66, 0.751, 0, 16.16)" fill="#e29f0e"/>
      </g>
      <g id="Group_32" data-name="Group 32" transform="translate(403.225 27.853)">
        <path id="Path_89" data-name="Path 89" d="M0,0,2.549.188,25.29,303.241l-2.549-.188Z" transform="translate(0 16.691) rotate(-41.301)" fill="#e29f0e"/>
      </g>
      <g id="Group_33" data-name="Group 33" transform="translate(393.051 28.058)">
        <path id="Path_90" data-name="Path 90" d="M0,0,2.549.188,26.063,313.546l-2.549-.188Z" transform="matrix(0.751, -0.66, 0.66, 0.751, 0, 17.202)" fill="#e29f0e"/>
      </g>
      <g id="Group_34" data-name="Group 34" transform="translate(382.955 28.356)">
        <path id="Path_91" data-name="Path 91" d="M0,0,2.549.188l24.26,323.3L24.26,323.3Z" transform="matrix(0.751, -0.66, 0.66, 0.751, 0, 17.694)" fill="#e29f0e"/>
      </g>
      <g id="Group_35" data-name="Group 35" transform="translate(372.89 28.702)">
        <path id="Path_92" data-name="Path 92" d="M0,0,2.548.188,27.531,333.121l-2.548-.188Z" transform="translate(0 18.171) rotate(-41.301)" fill="#e29f0e"/>
      </g>
      <g id="Group_36" data-name="Group 36" transform="translate(362.836 29.071)">
        <path id="Path_93" data-name="Path 93" d="M0,0,2.549.188,28.233,342.467l-2.549-.188Z" transform="matrix(0.751, -0.66, 0.66, 0.751, 0, 18.634)" fill="#e29f0e"/>
      </g>
      <g id="Group_37" data-name="Group 37" transform="translate(352.727 29.395)">
        <path id="Path_94" data-name="Path 94" d="M0,0,2.549.188,28.924,351.674l-2.549-.188Z" transform="translate(0 19.09) rotate(-41.301)" fill="#e29f0e"/>
      </g>
      <g id="Group_38" data-name="Group 38" transform="translate(342.533 29.639)">
        <path id="Path_95" data-name="Path 95" d="M0,0,2.549.188,29.607,360.776l-2.549-.188Z" transform="translate(0 19.541) rotate(-41.301)" fill="#e29f0e"/>
      </g>
      <g id="Group_39" data-name="Group 39" transform="translate(332.228 29.778)">
        <path id="Path_96" data-name="Path 96" d="M0,0,2.549.188,30.286,369.819l-2.549-.188Z" transform="matrix(0.751, -0.66, 0.66, 0.751, 0, 19.989)" fill="#e29f0e"/>
      </g>
      <g id="Group_40" data-name="Group 40" transform="translate(321.825 29.824)">
        <path id="Path_97" data-name="Path 97" d="M0,0,2.549.188,30.96,378.815l-2.549-.188Z" transform="matrix(0.751, -0.66, 0.66, 0.751, 0, 20.434)" fill="#e29f0e"/>
      </g>
      <g id="Group_41" data-name="Group 41" transform="translate(311.281 29.731)">
        <path id="Path_98" data-name="Path 98" d="M0,0,2.549.188,31.637,387.825l-2.549-.188Z" transform="matrix(0.751, -0.66, 0.66, 0.751, 0, 20.881)" fill="#e29f0e"/>
      </g>
      <g id="Group_42" data-name="Group 42" transform="translate(300.573 29.474)">
        <path id="Path_99" data-name="Path 99" d="M0,0,2.549.188,32.317,396.9l-2.549-.188Z" transform="translate(0 21.33) rotate(-41.301)" fill="#e29f0e"/>
      </g>
      <g id="Group_43" data-name="Group 43" transform="translate(289.702 29.054)">
        <path id="Path_100" data-name="Path 100" d="M0,0,2.548.188,33,406.015l-2.548-.188Z" transform="translate(0 21.781) rotate(-41.301)" fill="#e29f0e"/>
      </g>
      <g id="Group_44" data-name="Group 44" transform="translate(278.623 28.426)">
        <path id="Path_101" data-name="Path 101" d="M0,0,2.549.188,33.695,415.254l-2.549-.188Z" transform="matrix(0.751, -0.66, 0.66, 0.751, 0, 22.239)" fill="#e29f0e"/>
      </g>
      <g id="Group_45" data-name="Group 45" transform="translate(267.316 27.563)">
        <path id="Path_102" data-name="Path 102" d="M0,0,2.549.188,34.4,424.676l-2.549-.188Z" transform="translate(0 22.706) rotate(-41.301)" fill="#e29f0e"/>
      </g>
      <g id="Group_46" data-name="Group 46" transform="translate(255.725 26.413)">
        <path id="Path_103" data-name="Path 103" d="M0,0,2.548.188,35.127,434.339l-2.548-.188Z" transform="matrix(0.751, -0.66, 0.66, 0.751, 0, 23.184)" fill="#e29f0e"/>
      </g>
      <g id="Group_47" data-name="Group 47" transform="translate(243.817 24.937)">
        <path id="Path_104" data-name="Path 104" d="M0,0,2.548.188,35.873,444.3l-2.548-.187Z" transform="matrix(0.751, -0.66, 0.66, 0.751, 0, 23.677)" fill="#e29f0e"/>
      </g>
      <g id="Group_48" data-name="Group 48" transform="translate(231.572 23.113)">
        <path id="Path_105" data-name="Path 105" d="M0,0,2.549.188,36.647,454.6l-2.549-.188Z" transform="translate(0 24.188) rotate(-41.301)" fill="#e29f0e"/>
      </g>
      <g id="Group_49" data-name="Group 49" transform="translate(218.955 20.906)">
        <path id="Path_106" data-name="Path 106" d="M0,0,2.549.188l34.9,465.1L34.9,465.1Z" transform="translate(0 24.717) rotate(-41.301)" fill="#e29f0e"/>
      </g>
      <g id="Group_50" data-name="Group 50" transform="translate(206.012 18.365)">
        <path id="Path_107" data-name="Path 107" d="M0,0,2.549.188,38.274,476.274l-2.549-.188Z" transform="translate(0 25.261) rotate(-41.301)" fill="#e29f0e"/>
      </g>
      <g id="Group_51" data-name="Group 51" transform="translate(192.83 15.576)">
        <path id="Path_108" data-name="Path 108" d="M0,0,2.549.188l36.568,487.32-2.549-.188Z" transform="translate(0 25.817) rotate(-41.301)" fill="#e29f0e"/>
      </g>
      <g id="Group_52" data-name="Group 52" transform="translate(179.581 12.725)">
        <path id="Path_109" data-name="Path 109" d="M0,0,2.548.188,39.956,498.7l-2.548-.187Z" transform="translate(0 26.371) rotate(-41.301)" fill="#e29f0e"/>
      </g>
      <g id="Group_53" data-name="Group 53" transform="translate(76.067 410.519)">
        <path id="Path_110" data-name="Path 110" d="M0,0,2.549.188l9.319,124.19-2.549-.188Z" transform="matrix(0.751, -0.66, 0.66, 0.751, 0, 7.833)" fill="#e29f0e"/>
      </g>
      <g id="Group_54" data-name="Group 54" transform="translate(48.12 357.259)">
        <path id="Path_111" data-name="Path 111" d="M0,0,2.549.188l16.17,215.486-2.549-.188Z" transform="translate(0 12.355) rotate(-41.3)" fill="#e29f0e"/>
      </g>
      <g id="Group_55" data-name="Group 55" transform="translate(59.95 381.495)">
        <path id="Path_112" data-name="Path 112" d="M0,0,2.549.188l13.192,175.8-2.549-.188Z" transform="translate(0 10.389) rotate(-41.301)" fill="#e29f0e"/>
      </g>
      <g id="Group_56" data-name="Group 56" transform="translate(31.033 316.087)">
        <path id="Path_113" data-name="Path 113" d="M0,0,2.548.188,23.374,277.73l-2.548-.188Z" transform="matrix(0.751, -0.66, 0.66, 0.751, 0, 15.427)" fill="#e29f0e"/>
      </g>
      <g id="Group_57" data-name="Group 57" transform="translate(38.71 335.716)">
        <path id="Path_114" data-name="Path 114" d="M0,0,2.549.188l18.662,248.7-2.549-.188Z" transform="translate(0 14) rotate(-41.301)" fill="#e29f0e"/>
      </g>
      <g id="Group_58" data-name="Group 58" transform="translate(19.344 280.858)">
        <path id="Path_115" data-name="Path 115" d="M0,0,2.548.188,27.035,326.514l-2.548-.188Z" transform="translate(0 17.844) rotate(-41.301)" fill="#e29f0e"/>
      </g>
      <g id="Group_59" data-name="Group 59" transform="translate(24.675 297.91)">
        <path id="Path_116" data-name="Path 116" d="M0,0,2.549.188,25.3,303.347l-2.549-.188Z" transform="matrix(0.751, -0.66, 0.66, 0.751, 0, 16.697)" fill="#e29f0e"/>
      </g>
      <g id="Group_60" data-name="Group 60" transform="translate(11.165 249.477)">
        <path id="Path_117" data-name="Path 117" d="M0,0,2.549.188,30.078,367.049l-2.549-.188Z" transform="translate(0 19.852) rotate(-41.301)" fill="#e29f0e"/>
      </g>
      <g id="Group_61" data-name="Group 61" transform="translate(14.861 264.739)">
        <path id="Path_118" data-name="Path 118" d="M0,0,2.549.188,28.623,347.672l-2.549-.188Z" transform="matrix(0.751, -0.66, 0.66, 0.751, 0, 18.892)" fill="#e29f0e"/>
      </g>
      <g id="Group_62" data-name="Group 62" transform="translate(5.571 220.92)">
        <path id="Path_119" data-name="Path 119" d="M0,0,2.549.188,32.678,401.707l-2.549-.188Z" transform="matrix(0.751, -0.66, 0.66, 0.751, 0, 21.568)" fill="#e29f0e"/>
      </g>
      <g id="Group_63" data-name="Group 63" transform="translate(8.079 234.884)">
        <path id="Path_120" data-name="Path 120" d="M0,0,2.549.188,31.426,385.024l-2.549-.188Z" transform="matrix(0.751, -0.66, 0.66, 0.751, 0, 20.742)" fill="#e29f0e"/>
      </g>
      <g id="Group_64" data-name="Group 64" transform="translate(2.072 194.638)">
        <path id="Path_121" data-name="Path 121" d="M0,0,2.548.188,34.937,431.813l-2.548-.188Z" transform="translate(0 23.059) rotate(-41.301)" fill="#e29f0e"/>
      </g>
      <g id="Group_65" data-name="Group 65" transform="translate(3.575 207.512)">
        <path id="Path_122" data-name="Path 122" d="M0,0,2.549.188l31.3,417.091-2.549-.188Z" transform="matrix(0.751, -0.66, 0.66, 0.751, 0, 22.339)" fill="#e29f0e"/>
      </g>
      <g id="Group_66" data-name="Group 66" transform="translate(0.306 170.237)">
        <path id="Path_123" data-name="Path 123" d="M0,0,2.548.188,36.92,458.236l-2.548-.188Z" transform="translate(0 24.367) rotate(-41.301)" fill="#e29f0e"/>
      </g>
      <g id="Group_67" data-name="Group 67" transform="translate(0.98 182.212)">
        <path id="Path_124" data-name="Path 124" d="M0,0,2.549.188l33.413,445.28-2.549-.188Z" transform="matrix(0.751, -0.66, 0.66, 0.751, 0, 23.736)" fill="#e29f0e"/>
      </g>
      <g id="Group_68" data-name="Group 68" transform="translate(0.065 147.484)">
        <path id="Path_125" data-name="Path 125" d="M0,0,2.549.188,38.67,481.556l-2.549-.188Z" transform="matrix(0.751, -0.66, 0.66, 0.751, 0, 25.523)" fill="#e29f0e"/>
      </g>
      <g id="Group_69" data-name="Group 69" transform="translate(0 158.66)">
        <path id="Path_126" data-name="Path 126" d="M0,0,2.548.188l35.275,470.09-2.548-.188Z" transform="translate(0 24.964) rotate(-41.301)" fill="#e29f0e"/>
      </g>
      <g id="Group_70" data-name="Group 70" transform="translate(1.241 126.258)">
        <path id="Path_127" data-name="Path 127" d="M0,0,2.55.188l37.662,501.9-2.55-.188Z" transform="matrix(0.751, -0.66, 0.66, 0.751, 0, 26.54)" fill="#e29f0e"/>
      </g>
      <g id="Group_71" data-name="Group 71" transform="translate(0.491 136.696)">
        <path id="Path_128" data-name="Path 128" d="M0,0,2.549.188,39.464,492.134l-2.549-.188Z" transform="translate(0 26.046) rotate(-41.301)" fill="#e29f0e"/>
      </g>
      <g id="Group_72" data-name="Group 72" transform="translate(3.75 106.462)">
        <path id="Path_129" data-name="Path 129" d="M0,0,2.549.188,41.56,520.066l-2.549-.188Z" transform="matrix(0.751, -0.66, 0.66, 0.751, 0, 27.43)" fill="#e29f0e"/>
      </g>
      <g id="Group_73" data-name="Group 73" transform="translate(2.344 116.197)">
        <path id="Path_130" data-name="Path 130" d="M0,0,2.548.188,40.906,511.36l-2.548-.188Z" transform="translate(0 26.998) rotate(-41.301)" fill="#e29f0e"/>
      </g>
      <g id="Group_74" data-name="Group 74" transform="translate(7.544 88.042)">
        <path id="Path_131" data-name="Path 131" d="M0,0,2.549.188,42.733,535.7l-2.549-.188Z" transform="translate(0 28.204) rotate(-41.301)" fill="#e29f0e"/>
      </g>
      <g id="Group_75" data-name="Group 75" transform="translate(5.485 97.078)">
        <path id="Path_132" data-name="Path 132" d="M0,0,2.548.188,42.167,528.164l-2.548-.188Z" transform="matrix(0.751, -0.66, 0.66, 0.751, 0, 27.831)" fill="#e29f0e"/>
      </g>
      <g id="Group_76" data-name="Group 76" transform="translate(12.605 70.974)">
        <path id="Path_66" data-name="Path 66" d="M0,0,2.549.188,43.737,549.077l-2.549-.188Z" transform="matrix(0.751, -0.66, 0.66, 0.751, 0, 28.867)" fill="#e29f0e"/>
      </g>
      <g id="Group_77" data-name="Group 77" transform="translate(9.911 79.334)">
        <path id="Path_133" data-name="Path 133" d="M0,0,2.549.188,43.256,542.67l-2.549-.187Z" transform="matrix(0.751, -0.66, 0.66, 0.751, 0, 28.549)" fill="#e29f0e"/>
      </g>
      <g id="Group_78" data-name="Group 78" transform="translate(18.983 55.311)">
        <path id="Path_67" data-name="Path 67" d="M0,0,2.549.188,44.569,560.175l-2.549-.187Z" transform="translate(0 29.416) rotate(-41.301)" fill="#e29f0e"/>
      </g>
      <g id="Group_79" data-name="Group 79" transform="translate(15.626 62.962)">
        <path id="Path_68" data-name="Path 68" d="M0,0,2.548.188,44.174,554.908l-2.548-.188Z" transform="translate(0 29.155) rotate(-41.301)" fill="#e29f0e"/>
      </g>
      <g id="Group_80" data-name="Group 80" transform="translate(26.726 41.093)">
        <path id="Path_69" data-name="Path 69" d="M0,0,2.549.188,45.235,569.032l-2.549-.188Z" transform="matrix(0.751, -0.66, 0.66, 0.751, 0, 29.855)" fill="#e29f0e"/>
      </g>
      <g id="Group_81" data-name="Group 81" transform="translate(22.668 48.006)">
        <path id="Path_70" data-name="Path 70" d="M0,0,2.549.188,44.924,564.893l-2.549-.187Z" transform="matrix(0.751, -0.66, 0.66, 0.751, 0, 29.65)" fill="#e29f0e"/>
      </g>
      <g id="Group_82" data-name="Group 82" transform="translate(35.972 28.479)">
        <path id="Path_71" data-name="Path 71" d="M0,0,2.549.188,45.7,575.288l-2.549-.188Z" transform="matrix(0.751, -0.66, 0.66, 0.751, 0, 30.165)" fill="#e29f0e"/>
      </g>
      <g id="Group_83" data-name="Group 83" transform="translate(31.153 34.574)">
        <path id="Path_72" data-name="Path 72" d="M0,0,2.549.188,45.5,572.548l-2.549-.188Z" transform="matrix(0.751, -0.66, 0.66, 0.751, 0, 30.029)" fill="#e29f0e"/>
      </g>
      <g id="Group_84" data-name="Group 84" transform="translate(46.897 17.67)">
        <path id="Path_73" data-name="Path 73" d="M0,0,2.549.188l43.38,578.1L43.38,578.1Z" transform="matrix(0.751, -0.66, 0.66, 0.751, 0, 30.313)" fill="#e29f0e"/>
      </g>
      <g id="Group_85" data-name="Group 85" transform="translate(41.207 22.83)">
        <path id="Path_74" data-name="Path 74" d="M0,0,2.548.188l43.3,577.019-2.548-.187Z" transform="translate(0 30.26) rotate(-41.301)" fill="#e29f0e"/>
      </g>
      <g id="Group_86" data-name="Group 86" transform="translate(59.787 8.954)">
        <path id="Path_134" data-name="Path 134" d="M0,0,2.549.188,45.9,577.877l-2.549-.188Z" transform="translate(0 30.293) rotate(-41.301)" fill="#e29f0e"/>
      </g>
      <g id="Group_87" data-name="Group 87" transform="translate(53.059 13.012)">
        <path id="Path_135" data-name="Path 135" d="M0,0,2.549.188l43.4,578.344-2.549-.188Z" transform="matrix(0.751, -0.66, 0.66, 0.751, 0, 30.326)" fill="#e29f0e"/>
      </g>
      <g id="Group_88" data-name="Group 88" transform="translate(75.085 2.79)">
        <path id="Path_136" data-name="Path 136" d="M0,0,2.549.188,45.574,573.569l-2.549-.187Z" transform="matrix(0.751, -0.66, 0.66, 0.751, 0, 30.08)" fill="#e29f0e"/>
      </g>
      <g id="Group_89" data-name="Group 89" transform="translate(67.093 5.508)">
        <path id="Path_137" data-name="Path 137" d="M0,0,2.549.188,45.777,576.263l-2.549-.188Z" transform="translate(0 30.213) rotate(-41.3)" fill="#e29f0e"/>
      </g>
      <g id="Group_90" data-name="Group 90" transform="translate(93.579 0)">
        <path id="Path_138" data-name="Path 138" d="M0,0,2.55.188,44.882,564.33l-2.55-.188Z" transform="translate(0 29.623) rotate(-41.301)" fill="#e29f0e"/>
      </g>
      <g id="Group_91" data-name="Group 91" transform="translate(83.863 0.901)">
        <path id="Path_139" data-name="Path 139" d="M0,0,2.549.188,45.281,569.656l-2.549-.187Z" transform="matrix(0.751, -0.66, 0.66, 0.751, 0, 29.886)" fill="#e29f0e"/>
      </g>
      <g id="Group_92" data-name="Group 92" transform="translate(116.272 1.637)">
        <path id="Path_140" data-name="Path 140" d="M0,0,2.55.188l41.164,548.57-2.55-.188Z" transform="translate(0 28.851) rotate(-41.301)" fill="#e29f0e"/>
      </g>
      <g id="Group_93" data-name="Group 93" transform="translate(104.429 0.296)">
        <path id="Path_141" data-name="Path 141" d="M0,0,2.548.188l41.8,557.11L41.8,557.11Z" transform="matrix(0.751, -0.66, 0.66, 0.751, 0, 29.273)" fill="#e29f0e"/>
      </g>
      <g id="Group_94" data-name="Group 94" transform="translate(140.782 5.205)">
        <path id="Path_142" data-name="Path 142" d="M0,0,2.549.188,42.321,530.22l-2.549-.188Z" transform="translate(0 27.933) rotate(-41.301)" fill="#e29f0e"/>
      </g>
      <g id="Group_95" data-name="Group 95" transform="translate(128.385 3.269)">
        <path id="Path_143" data-name="Path 143" d="M0,0,2.549.188,43.037,539.749l-2.549-.188Z" transform="translate(0 28.405) rotate(-41.301)" fill="#e29f0e"/>
      </g>
      <g id="Group_96" data-name="Group 96" transform="translate(166.41 9.962)">
        <path id="Path_144" data-name="Path 144" d="M0,0,2.548.188,40.777,509.639l-2.548-.187Z" transform="translate(0 26.913) rotate(-41.301)" fill="#e29f0e"/>
      </g>
      <g id="Group_97" data-name="Group 97" transform="translate(153.453 7.431)">
        <path id="Path_145" data-name="Path 145" d="M0,0,2.549.188l39.02,520L39.02,520Z" transform="matrix(0.751, -0.66, 0.66, 0.751, 0, 27.436)" fill="#e29f0e"/>
      </g>
    </g>
  </g>
</svg>
